<svg width="122" height="44" viewBox="0 0 122 44" fill="none" xmlns="http://www.w3.org/2000/svg">
<path fill-rule="evenodd" clip-rule="evenodd" d="M22.3741 12.7623C24.0991 12.7623 25.6658 12.0921 26.8229 11.0003L36.4017 18.534C35.3833 20.1453 34.7946 22.0499 34.7946 24.0906C34.7946 29.8854 39.5416 34.5831 45.3972 34.5831C51.2529 34.5831 55.9998 29.8854 55.9998 24.0906C55.9998 18.2957 51.2529 13.598 45.3972 13.598C42.4639 13.598 39.8089 14.7768 37.8893 16.6819L28.2202 9.07711C28.6065 8.25816 28.8223 7.3446 28.8223 6.38117C28.8223 2.85695 25.9353 0 22.3741 0C18.8129 0 15.926 2.85695 15.926 6.38117C15.926 9.90539 18.8129 12.7623 22.3741 12.7623ZM22.3748 10.7993C24.8402 10.7993 26.8389 8.82141 26.8389 6.38156C26.8389 3.94172 24.8402 1.96384 22.3748 1.96384C19.9094 1.96384 17.9107 3.94172 17.9107 6.38156C17.9107 8.82141 19.9094 10.7993 22.3748 10.7993ZM12.7841 33.2877L34.8612 26.2057L35.5423 28.2852L13.4652 35.3672L12.7841 33.2877ZM13.5021 36.5739C13.5021 40.2637 10.4796 43.2549 6.75106 43.2549C3.02255 43.2549 0 40.2637 0 36.5739C0 32.8841 3.02255 29.8929 6.75106 29.8929C10.4796 29.8929 13.5021 32.8841 13.5021 36.5739ZM11.424 36.574C11.424 39.1285 9.33149 41.1993 6.75022 41.1993C4.16895 41.1993 2.07642 39.1285 2.07642 36.574C2.07642 34.0196 4.16895 31.9488 6.75022 31.9488C9.33149 31.9488 11.424 34.0196 11.424 36.574ZM52.7381 24.0907C52.7381 28.1025 49.4518 31.3547 45.3979 31.3547C41.344 31.3547 38.0576 28.1025 38.0576 24.0907C38.0576 20.0789 41.344 16.8266 45.3979 16.8266C49.4518 16.8266 52.7381 20.0789 52.7381 24.0907Z" fill="#00818A"/>
<path d="M64.7617 18V9.46875H67.75C68.7852 9.46875 69.5703 9.66797 70.1055 10.0664C70.6406 10.4609 70.9082 11.041 70.9082 11.8066C70.9082 12.2246 70.8008 12.5938 70.5859 12.9141C70.3711 13.2305 70.0723 13.4629 69.6895 13.6113C70.127 13.7207 70.4707 13.9414 70.7207 14.2734C70.9746 14.6055 71.1016 15.0117 71.1016 15.4922C71.1016 16.3125 70.8398 16.9336 70.3164 17.3555C69.793 17.7773 69.0469 17.9922 68.0781 18H64.7617ZM66.5195 14.2852V16.5879H68.0254C68.4395 16.5879 68.7617 16.4902 68.9922 16.2949C69.2266 16.0957 69.3438 15.8223 69.3438 15.4746C69.3438 14.6934 68.9395 14.2969 68.1309 14.2852H66.5195ZM66.5195 13.043H67.8203C68.707 13.0273 69.1504 12.6738 69.1504 11.9824C69.1504 11.5957 69.0371 11.3184 68.8105 11.1504C68.5879 10.9785 68.2344 10.8926 67.75 10.8926H66.5195V13.043ZM75.877 13.248C75.6465 13.2168 75.4434 13.2012 75.2676 13.2012C74.627 13.2012 74.207 13.418 74.0078 13.8516V18H72.3145V11.6602H73.9141L73.9609 12.416C74.3008 11.834 74.7715 11.543 75.373 11.543C75.5605 11.543 75.7363 11.5684 75.9004 11.6191L75.877 13.248ZM78.4844 18H76.7852V11.6602H78.4844V18ZM76.6855 10.0195C76.6855 9.76562 76.7695 9.55664 76.9375 9.39258C77.1094 9.22852 77.3418 9.14648 77.6348 9.14648C77.9238 9.14648 78.1543 9.22852 78.3262 9.39258C78.498 9.55664 78.584 9.76562 78.584 10.0195C78.584 10.2773 78.4961 10.4883 78.3203 10.6523C78.1484 10.8164 77.9199 10.8984 77.6348 10.8984C77.3496 10.8984 77.1191 10.8164 76.9434 10.6523C76.7715 10.4883 76.6855 10.2773 76.6855 10.0195ZM79.6211 14.7832C79.6211 13.7949 79.8418 13.0078 80.2832 12.4219C80.7285 11.8359 81.3359 11.543 82.1055 11.543C82.7227 11.543 83.2324 11.7734 83.6348 12.2344V9H85.334V18H83.8047L83.7227 17.3262C83.3008 17.8535 82.7578 18.1172 82.0938 18.1172C81.3477 18.1172 80.748 17.8242 80.2949 17.2383C79.8457 16.6484 79.6211 15.8301 79.6211 14.7832ZM81.3145 14.9062C81.3145 15.5 81.418 15.9551 81.625 16.2715C81.832 16.5879 82.1328 16.7461 82.5273 16.7461C83.0508 16.7461 83.4199 16.5254 83.6348 16.084V13.582C83.4238 13.1406 83.0586 12.9199 82.5391 12.9199C81.7227 12.9199 81.3145 13.582 81.3145 14.9062ZM86.4004 14.7832C86.4004 13.8105 86.6309 13.0273 87.0918 12.4336C87.5566 11.8398 88.1816 11.543 88.9668 11.543C89.6621 11.543 90.2031 11.7812 90.5898 12.2578L90.6602 11.6602H92.1953V17.7891C92.1953 18.3438 92.0684 18.8262 91.8145 19.2363C91.5645 19.6465 91.2109 19.959 90.7539 20.1738C90.2969 20.3887 89.7617 20.4961 89.1484 20.4961C88.6836 20.4961 88.2305 20.4023 87.7891 20.2148C87.3477 20.0312 87.0137 19.793 86.7871 19.5L87.5371 18.4688C87.959 18.9414 88.4707 19.1777 89.0723 19.1777C89.5215 19.1777 89.8711 19.0566 90.1211 18.8145C90.3711 18.5762 90.4961 18.2363 90.4961 17.7949V17.4551C90.1055 17.8965 89.5918 18.1172 88.9551 18.1172C88.1934 18.1172 87.5762 17.8203 87.1035 17.2266C86.6348 16.6289 86.4004 15.8379 86.4004 14.8535V14.7832ZM88.0938 14.9062C88.0938 15.4805 88.209 15.9316 88.4395 16.2598C88.6699 16.584 88.9863 16.7461 89.3887 16.7461C89.9043 16.7461 90.2734 16.5527 90.4961 16.166V13.5C90.2695 13.1133 89.9043 12.9199 89.4004 12.9199C88.9941 12.9199 88.6738 13.0859 88.4395 13.418C88.209 13.75 88.0938 14.2461 88.0938 14.9062ZM96.4199 18.1172C95.4902 18.1172 94.7324 17.832 94.1465 17.2617C93.5645 16.6914 93.2734 15.9316 93.2734 14.9824V14.8184C93.2734 14.1816 93.3965 13.6133 93.6426 13.1133C93.8887 12.6094 94.2363 12.2227 94.6855 11.9531C95.1387 11.6797 95.6543 11.543 96.2324 11.543C97.0996 11.543 97.7812 11.8164 98.2773 12.3633C98.7773 12.9102 99.0273 13.6855 99.0273 14.6895V15.3809H94.9902C95.0449 15.7949 95.209 16.127 95.4824 16.377C95.7598 16.627 96.1094 16.752 96.5312 16.752C97.1836 16.752 97.6934 16.5156 98.0605 16.043L98.8926 16.9746C98.6387 17.334 98.2949 17.6152 97.8613 17.8184C97.4277 18.0176 96.9473 18.1172 96.4199 18.1172ZM96.2266 12.9141C95.8906 12.9141 95.6172 13.0273 95.4062 13.2539C95.1992 13.4805 95.0664 13.8047 95.0078 14.2266H97.3633V14.0918C97.3555 13.7168 97.2539 13.4277 97.0586 13.2246C96.8633 13.0176 96.5859 12.9141 96.2266 12.9141Z" fill="#27262E"/>
<path d="M72.3672 33.3633H67.7441L66.8652 36H64.0615L68.8252 23.2031H71.2686L76.0586 36H73.2549L72.3672 33.3633ZM68.4561 31.2275H71.6553L70.0469 26.4375L68.4561 31.2275ZM77.2539 36V23.2031H81.1914C82.3164 23.2031 83.3213 23.458 84.2061 23.9678C85.0967 24.4717 85.791 25.1924 86.2891 26.1299C86.7871 27.0615 87.0361 28.1221 87.0361 29.3115V29.9004C87.0361 31.0898 86.79 32.1475 86.2979 33.0732C85.8115 33.999 85.123 34.7168 84.2324 35.2266C83.3418 35.7363 82.3369 35.9941 81.2178 36H77.2539ZM79.8906 25.3389V33.8818H81.165C82.1963 33.8818 82.9844 33.5449 83.5293 32.8711C84.0742 32.1973 84.3525 31.2334 84.3643 29.9795V29.3027C84.3643 28.002 84.0947 27.0176 83.5557 26.3496C83.0166 25.6758 82.2285 25.3389 81.1914 25.3389H79.8906ZM92.4062 23.2031L95.6934 32.4844L98.9629 23.2031H102.426V36H99.7803V32.502L100.044 26.4639L96.5898 36H94.7793L91.334 26.4727L91.5977 32.502V36H88.9609V23.2031H92.4062ZM107.532 36H104.896V23.2031H107.532V36ZM120.391 36H117.754L112.621 27.5801V36H109.984V23.2031H112.621L117.763 31.6406V23.2031H120.391V36Z" fill="#27262E"/>
</svg>
